<svg width="580" height="400" xmlns="http://www.w3.org/2000/svg">
 <!-- Created with Method Draw - http://github.com/duopixel/Method-Draw/ -->
 <g>
  <title>background</title>
  <rect fill="#fff" id="canvas_background" height="402" width="582" y="-1" x="-1"/>
  <g display="none" overflow="visible" y="0" x="0" height="100%" width="100%" id="canvasGrid">
   <rect fill="url(#gridpattern)" stroke-width="0" y="0" x="0" height="100%" width="100%"/>
  </g>
 </g>
 <g>
  <title>Layer 1</title>
  <path d="m287.75,88.453125c0,1 -0.810898,3.018044 -1,4c-1.018372,5.287994 -3.112137,8.918304 -6,13c-2.082474,2.943352 -5.343552,7.683708 -9,12c-5.560333,6.563744 -12.863663,15.153839 -23,24c-12.830414,11.197342 -19.658127,15.36702 -25,20c-3.777267,3.276016 -9.132996,5.569504 -13,7c-6.291519,2.327393 -15.946724,5.498734 -23,6c-5.984909,0.425339 -20,0 -35,0c-13,0 -21,0 -26,0c-2,0 -4,0 -7,0c-6,0 -12.757111,-1.986923 -19,-3c-4.935438,-0.800919 -7,0 -8,0c-1,0 -1,1 -1,5c0,5 2,10 6,14c3,3 9.733585,7.60582 16,10c10.650852,4.069321 17.077477,4.03891 23,5c6.242889,1.013077 12.937965,2.498291 19,3c5.979553,0.494888 11.090218,0.945541 16,0c5.287994,-1.018372 10.485313,-3.851135 15,-6c3.722908,-1.771988 7.08744,-3.79393 12,-6c4.079666,-1.832031 8.658127,-4.36702 14,-9c3.777267,-3.276016 7.222733,-4.723984 11,-8c3.205124,-2.779785 7.423355,-5.428238 13,-10c3.281006,-2.689789 6.450485,-5.450485 9,-8c2.549515,-2.549515 4.415894,-6.761078 6,-10c1.389359,-2.840729 3.346191,-6.70546 5,-9c1.307449,-1.813995 3,-4 5,-6c1,-1 1.337494,-3.310013 3,-6c0.7435,-1.203003 2,-3 4,-7c1,-2 2.493454,-2.878555 3,-6c0.320358,-1.974174 1.496231,-3.907784 2,-8c0.24437,-1.985016 1,-4 1,-6c0,-2 -0.307449,-3.186005 1,-5c0.826904,-1.14727 4.916809,-2.438248 9,5c4.436523,8.081909 2.997086,15.885345 4,29c1.372513,17.947601 2.005371,42.43692 -2,56c-4.05513,13.731567 -14.700089,25.236313 -25,38c-10.694397,13.252548 -21.846527,21.138809 -30,30c-3.385544,3.679413 -5.190277,5.881531 -7,9c-1.122345,1.93399 -0.995132,3.098541 0,3c5.074203,-0.502441 13,-3 22,-6c9,-3 19.888306,-7.146011 29,-14c10.869583,-8.176315 21.993576,-17.139114 34,-32c7.671143,-9.494919 13.01297,-21.690262 15,-30c2.105957,-8.807098 2,-16 2,-23c0,-6 0.855286,-13.052444 0,-20c-1.007553,-8.184433 -7.661179,-17.254852 -13,-24c-6.597336,-8.335175 -13.837723,-12.837723 -17,-16c-1.581146,-1.581139 -4,-4 -6,-6c-2,-2 -3,-3 -4,-4c-1,-1 -0.081696,1.112137 4,4c5.886703,4.164932 19.875961,12.224159 36,21c18.858582,10.264175 36.871552,19.951874 48,32c16.185089,17.522644 21.462982,37.859955 27,57c5.459747,18.873032 9.387024,33.096664 8,43c-1.009766,7.209747 -4.84787,13.847992 -11,21c-6.012299,6.989441 -13.742828,12.344574 -19,16c-4.787384,3.328796 -9.541199,5.693451 -9,7c0.38269,0.923889 4.638763,-4.38443 11,-10c8.547638,-7.545715 14.52179,-12.445099 22,-20c6.48587,-6.552368 12.513824,-11.521393 19,-19c3.276001,-3.777267 7.443512,-9.38063 9,-15c1.601593,-5.782288 0,-13 0,-20c0,-7 -1.718628,-15.149139 -5,-21c-4.614716,-8.228271 -11.238861,-16.73909 -20,-25c-5.144714,-4.850967 -18.194275,-13.66922 -32,-22c-11.163422,-6.736343 -18,-12 -20,-14c-5,-5 -9.885101,-9.269272 -19,-13c-7.907303,-3.236458 -22.03598,-6.867432 -37,-11c-14.034851,-3.875961 -16,-5 -17,-5c-1,0 -4.132996,0.569504 -8,2c-4.194351,1.55159 -6,2 -8,2c-1,0 -3.60083,0.744225 -5,-1c-2.579941,-3.216194 -3.674103,-8.647095 -5,-12c-2.236862,-5.65654 -2.414215,-8.585785 -1,-10c0.707108,-0.707108 2,0 15,0c19,0 36,0 47,0c1,0 2.122177,0.007492 2,1c-0.503769,4.092216 -5.155334,7.873886 -10,14c-3.101486,3.921837 -5,6 -6,6c-2,0 -5,0 -9,0l-13,-1l-4,-1l-2,0" id="svg_1" stroke-width="4" stroke="#000" fill="none"/>
 </g>
</svg>